<?xml version="1.0" standalone="no"?>
<!DOCTYPE svg PUBLIC "-//W3C//DTD SVG 20010904//EN"
 "http://www.w3.org/TR/2001/REC-SVG-20010904/DTD/svg10.dtd">
<svg version="1.0" xmlns="http://www.w3.org/2000/svg"
 width="1024.000000pt" height="1024.000000pt" viewBox="0 0 1024.000000 1024.000000"
 preserveAspectRatio="xMidYMid meet">
<metadata>
Created by potrace 1.14, written by Peter Selinger 2001-2017
</metadata>
<g transform="translate(0.000000,1024.000000) scale(0.100000,-0.100000)"
fill="#000000" stroke="none">
<path d="M6395 10047 c-15 -40 -52 -142 -82 -227 -31 -85 -59 -159 -63 -163
-4 -4 -56 8 -116 28 -268 90 -556 158 -794 190 -25 3 -56 8 -70 10 -14 2 -54
7 -90 11 -36 3 -78 8 -95 10 -190 23 -677 22 -874 -1 -261 -32 -393 -53 -601
-100 -241 -53 -587 -168 -807 -266 -122 -55 -339 -163 -419 -210 -49 -28 -104
-60 -122 -70 -120 -69 -360 -236 -492 -343 -242 -195 -517 -464 -685 -670 -22
-28 -52 -63 -66 -80 -35 -43 -162 -215 -185 -251 -10 -16 -21 -32 -24 -35 -13
-13 -147 -228 -207 -335 -31 -56 -170 -335 -206 -415 -75 -169 -209 -561 -242
-710 -44 -196 -57 -258 -60 -275 -1 -11 -6 -36 -9 -55 -23 -127 -35 -212 -52
-375 -26 -258 -21 -708 11 -960 25 -203 31 -241 41 -285 3 -14 10 -50 15 -80
6 -30 13 -68 15 -85 8 -42 76 -302 108 -407 61 -205 203 -551 312 -756 30 -57
54 -107 54 -112 0 -4 -17 -17 -37 -28 -21 -10 -54 -28 -73 -39 -19 -11 -71
-40 -115 -64 -44 -24 -89 -49 -100 -56 -11 -6 -33 -19 -50 -27 -62 -30 -61
-28 -20 -102 21 -38 74 -125 118 -194 299 -473 674 -892 1112 -1246 487 -393
1055 -701 1649 -893 213 -69 553 -152 761 -185 66 -10 111 -17 140 -20 17 -2
53 -7 80 -10 56 -7 88 -10 225 -23 180 -15 787 -8 889 12 9 1 45 6 81 9 36 4
75 8 85 10 11 2 45 7 75 11 30 4 64 9 75 11 11 3 36 7 55 10 19 3 67 12 105
19 39 8 81 16 95 19 189 33 707 194 887 277 24 10 45 19 47 19 26 0 502 239
596 300 8 5 35 21 60 36 216 129 447 297 689 499 152 127 410 388 564 570 l25
29 53 -16 c318 -99 667 -56 957 117 98 59 118 75 215 165 186 173 328 461 353
712 31 305 -43 590 -214 828 -60 83 -182 207 -256 260 -40 29 -47 38 -42 60
30 142 56 271 60 300 3 19 8 44 10 56 2 12 8 45 11 75 4 30 9 65 11 79 2 14 6
52 10 85 3 33 7 71 10 85 12 77 19 267 19 510 -1 288 -8 424 -30 580 -3 19 -7
56 -10 82 -3 26 -8 64 -11 85 -4 21 -8 47 -9 58 -2 24 -13 83 -25 145 -6 25
-12 56 -14 70 -9 56 -60 263 -97 390 -237 832 -685 1594 -1299 2210 -191 192
-340 323 -555 488 -89 68 -289 203 -450 302 -200 124 -560 298 -807 390 l-76
29 -27 -72z m-1450 -161 c55 -3 118 -8 140 -11 22 -2 81 -9 130 -15 131 -15
273 -37 367 -56 15 -3 30 -6 33 -6 2 0 73 -18 157 -39 84 -22 163 -42 175 -44
11 -3 101 -32 199 -66 481 -164 894 -385 1310 -699 81 -61 152 -117 159 -123
7 -7 43 -39 81 -72 177 -153 449 -439 589 -620 38 -49 74 -95 80 -101 5 -7 46
-64 90 -128 230 -334 423 -710 550 -1071 41 -114 100 -302 110 -345 2 -8 12
-51 24 -95 20 -81 65 -297 76 -370 19 -127 30 -212 40 -310 22 -208 22 -709 1
-860 -3 -16 -7 -55 -10 -85 -4 -45 -22 -170 -41 -295 -5 -31 -35 -178 -40
-196 -4 -12 -15 -14 -56 -9 -94 12 -272 -1 -380 -29 -274 -70 -511 -229 -678
-455 -49 -66 -147 -250 -155 -291 -2 -11 -9 -32 -15 -48 -56 -143 -70 -408
-33 -587 45 -211 143 -410 274 -555 16 -16 28 -35 28 -41 0 -16 -354 -374
-450 -455 -41 -35 -83 -72 -95 -82 -56 -51 -308 -236 -421 -310 -360 -234
-715 -403 -1119 -533 -128 -41 -344 -100 -405 -110 -21 -4 -40 -8 -90 -19 -47
-11 -73 -15 -110 -21 -51 -7 -71 -10 -120 -18 -127 -19 -223 -30 -390 -42
-160 -13 -577 -6 -710 11 -19 2 -62 7 -95 10 -33 3 -73 8 -90 10 -16 3 -47 7
-67 10 -21 2 -53 7 -70 10 -18 3 -44 7 -58 9 -247 40 -750 183 -904 257 -22
11 -43 19 -48 19 -24 0 -398 183 -538 263 -154 88 -343 213 -481 319 -67 51
-134 102 -148 113 -14 11 -31 24 -37 30 -6 5 -42 37 -80 70 -176 151 -450 440
-589 620 -38 50 -75 96 -82 103 -7 7 -13 17 -13 21 0 4 -8 16 -18 27 -26 27
-179 260 -249 379 -68 116 -173 321 -228 445 -20 47 -43 99 -50 115 -62 139
-159 432 -209 631 -28 109 -80 368 -91 449 -36 268 -48 443 -48 681 0 156 9
383 17 434 3 14 7 55 11 92 3 37 8 80 11 95 2 15 6 42 9 58 2 17 7 48 10 70 4
22 8 49 10 60 2 11 9 47 15 80 86 458 281 985 511 1384 30 51 60 104 67 117
67 123 327 479 471 644 78 89 340 354 427 430 216 191 540 423 764 547 19 11
60 34 92 51 253 141 583 278 883 366 136 40 346 92 408 101 23 4 44 8 47 10 4
2 28 6 54 10 27 3 51 7 55 9 3 2 35 7 70 10 36 4 67 9 70 10 5 4 32 6 191 22
25 2 101 7 170 10 69 4 126 7 127 8 5 4 312 -2 408 -8z m4282 -5657 c173 -36
295 -87 437 -183 255 -171 430 -446 490 -766 14 -75 15 -320 2 -385 -15 -71
-49 -184 -73 -245 -25 -62 -116 -228 -131 -240 -4 -3 -19 -21 -34 -40 -47 -63
-125 -140 -214 -210 -96 -77 -310 -176 -422 -196 -14 -3 -28 -7 -32 -9 -17
-10 -140 -20 -255 -19 -127 0 -180 5 -243 24 -18 5 -32 7 -32 5 0 -8 -203 74
-265 108 -160 86 -328 241 -422 392 -59 94 -139 277 -144 327 0 4 -5 22 -10
40 -24 84 -33 327 -17 438 23 151 123 388 218 513 188 247 460 410 755 453 22
4 41 7 43 9 1 1 61 2 132 2 86 0 158 -6 217 -18z"/>
<path d="M4469 7956 c-2 -2 -40 -7 -84 -11 -114 -9 -341 -53 -378 -71 -73 -37
-114 -94 -132 -183 -12 -60 -9 -58 -115 -97 -104 -38 -268 -118 -375 -182 -77
-46 -250 -164 -265 -181 -3 -4 -32 -28 -65 -56 -62 -51 -227 -213 -281 -275
-170 -197 -314 -437 -429 -715 -11 -27 -58 -163 -60 -175 -1 -3 -9 -30 -18
-61 -14 -47 -25 -93 -52 -221 -2 -9 -6 -38 -10 -65 -4 -26 -9 -59 -11 -73 -22
-136 -22 -502 0 -615 2 -11 7 -45 11 -75 9 -67 48 -247 69 -314 l15 -48 -44
-45 c-60 -60 -82 -133 -64 -215 15 -67 149 -330 236 -463 135 -206 295 -389
473 -545 157 -137 275 -221 470 -333 58 -33 181 -93 250 -121 36 -15 74 -31
85 -36 154 -69 475 -145 710 -167 149 -15 561 -7 617 12 7 2 32 6 56 9 79 10
207 38 233 52 87 44 132 117 133 214 1 74 -19 123 -68 172 -66 67 -141 81
-278 53 -153 -32 -291 -43 -483 -40 -104 2 -206 6 -225 10 -19 3 -62 11 -95
17 -33 5 -73 12 -88 15 -129 21 -387 114 -555 200 -100 51 -302 179 -347 220
-11 10 -36 30 -56 45 -44 33 -212 200 -259 257 -19 23 -45 55 -58 69 -57 66
-189 279 -252 407 -38 77 -79 152 -92 166 -53 59 -158 88 -244 66 -28 -7 -32
-5 -37 15 -2 13 -16 68 -30 123 -14 55 -28 117 -31 138 -3 20 -9 54 -12 75 -3
20 -7 48 -10 62 -23 135 -22 455 2 635 19 143 94 439 139 550 9 22 24 58 33
80 41 100 148 297 218 403 280 421 679 742 1157 931 93 37 104 38 113 9 4 -13
20 -42 37 -65 56 -79 157 -110 272 -83 151 34 307 48 510 45 105 -2 199 -6
210 -8 11 -3 45 -8 75 -12 140 -18 363 -81 520 -147 500 -210 892 -584 1135
-1083 35 -71 75 -142 90 -158 88 -93 244 -95 340 -4 42 39 68 103 68 165 -1
68 -21 121 -109 292 -263 505 -676 908 -1189 1161 -268 132 -567 224 -820 254
-27 3 -66 8 -85 11 -39 6 -466 15 -471 10z"/>
</g>
</svg>
